<svg width="3900" height="799" viewBox="0 0 3900 799" fill="none" xmlns="http://www.w3.org/2000/svg">
<path d="M1225.96 0.00898664C1226.91 0.00727888 1227.87 0.00490532 1228.82 0.0017776C1244.16 -0.0443971 1260.71 0.726932 1272.34 12.118C1280.57 21.2681 1283.02 32.1609 1282.99 44.1694C1282.99 44.8402 1282.99 45.511 1283 46.2021C1283 48.0638 1283 49.9254 1282.99 51.787C1282.99 53.8173 1282.99 55.8477 1283 57.8781C1283 61.4453 1283 65.0125 1283 68.5797C1282.99 73.907 1283 79.2343 1283 84.5616C1283 94.1599 1283 103.758 1283 113.356C1283 121.89 1283 130.423 1283 138.956C1283 139.527 1283 140.099 1283 140.687C1283 143.011 1283 145.335 1283 147.659C1283 171.706 1283 195.754 1283 219.802C1283 222.371 1282.99 224.941 1282.99 227.51C1282.99 228.466 1282.99 228.466 1282.99 229.441C1282.99 242.895 1282.99 256.35 1282.99 269.805C1282.99 333.167 1282.98 396.529 1282.63 670.632C1282.63 671.048 1282.63 671.465 1282.62 671.895C1282.54 714.022 1282.44 756.149 1282.33 798.277C1139.94 798.958 1139.94 798.958 1081.52 798.969C1076.59 798.969 1071.66 798.974 1066.74 798.981C958.035 799.129 958.035 799.129 849.11 769.018C846.051 767.685 842.975 766.406 839.883 765.152C817.468 756.02 795.693 744.402 776.578 729.492C775.103 728.351 773.598 727.251 772.097 726.145C766.069 721.621 760.204 716.866 754.648 711.772C753.503 710.723 752.341 709.702 751.166 708.688C745.559 703.775 740.183 698.652 734.895 693.399C734.282 692.79 733.667 692.182 733.052 691.575C729.032 687.604 725.347 683.504 721.833 679.068C721.179 678.271 720.522 677.476 719.863 676.683C716.106 672.123 712.555 667.481 709.171 662.639C708.323 661.442 707.457 660.26 706.587 659.079C673.465 614.07 656.167 559.112 651.669 494.856C651.644 494.393 651.619 493.929 651.593 493.451C651.065 483.566 650.867 473.688 650.775 463.79C650.757 461.862 650.734 459.935 650.712 458.008C650.545 443.213 650.469 428.419 650.412 413.624C650.406 412.007 650.399 410.39 650.393 408.773C650.38 405.54 650.367 402.308 650.355 399.075C650.353 398.543 650.351 398.01 650.349 397.461C650.327 391.43 650.307 385.399 650.294 379.368C650.283 374.435 650.267 369.501 650.243 364.568C650.231 361.998 650.221 359.428 650.22 356.858C650.219 354.474 650.21 352.089 650.194 349.705C650.19 348.842 650.189 347.979 650.191 347.116C650.207 338.593 649.319 330.644 645.049 323.123C644.638 322.352 644.638 322.352 644.218 321.566C640.149 314.102 634.732 310.924 626.748 308.404C616.554 305.777 606.036 306.062 595.589 306.25C594.844 306.261 594.098 306.272 593.33 306.284C578.469 306.535 561.612 307.014 550.024 317.839C544.404 324.612 543.401 334.063 543.39 342.512C543.385 343.198 543.379 343.885 543.374 344.591C543.36 346.492 543.351 348.393 543.345 350.295C543.337 352.381 543.322 354.468 543.308 356.555C543.282 360.727 543.262 364.899 543.244 369.071C543.229 372.572 543.212 376.073 543.193 379.574C542.86 441.02 542.8 502.467 542.695 563.914C542.656 586.792 542.616 609.669 542.572 632.547C542.567 634.704 542.563 636.861 542.559 639.017C542.5 669.668 542.423 700.318 542.255 730.969C542.251 731.521 542.248 732.073 542.245 732.642C542.125 754.52 541.967 776.398 541.818 798.277C477.592 798.277 413.365 798.277 347.192 798.277C346.52 778.127 346.52 778.127 346.519 769.079C346.517 768.022 346.514 766.966 346.511 765.909C346.505 763.063 346.501 760.217 346.499 757.371C346.495 754.267 346.488 751.162 346.482 748.058C346.471 742.664 346.462 737.27 346.455 731.877C346.444 723.953 346.43 716.03 346.415 708.107C346.397 698.161 346.379 688.215 346.363 678.269C346.362 677.878 346.362 677.488 346.361 677.086C346.358 675.503 346.356 673.92 346.353 672.337C346.322 653.12 346.285 633.902 346.245 614.685C346.236 610.283 346.227 605.881 346.218 601.479C346.218 601.083 346.217 600.687 346.216 600.279C346.211 597.883 346.206 595.487 346.201 593.09C346.199 591.895 346.196 590.699 346.194 589.503C346.157 571.377 346.12 553.251 346.086 535.125C346.083 533.99 346.083 533.99 346.081 532.833C346.039 510.669 346.005 488.504 345.982 466.339C345.971 455.659 345.959 444.979 345.939 434.299C345.938 433.83 345.937 433.36 345.936 432.876C345.927 428.299 345.918 423.722 345.908 419.144C345.903 416.963 345.899 414.781 345.894 412.599C345.893 412.174 345.892 411.749 345.892 411.31C345.878 404.564 345.875 397.817 345.875 391.071C345.876 384.465 345.866 377.859 345.846 371.253C345.836 367.795 345.83 364.337 345.838 360.879C345.844 357.79 345.838 354.702 345.82 351.613C345.817 350.515 345.818 349.418 345.824 348.321C345.882 337.74 343.655 324.682 336.425 316.401C334.557 314.637 332.479 313.337 330.242 312.093C329.741 311.798 329.239 311.503 328.722 311.198C321.376 307.188 313.625 306.748 305.436 306.731C304.648 306.727 303.86 306.723 303.073 306.719C300.498 306.707 297.923 306.701 295.348 306.695C294.455 306.692 293.562 306.69 292.67 306.687C288.469 306.676 284.269 306.668 280.068 306.663C275.252 306.658 270.436 306.642 265.62 306.618C261.877 306.601 258.134 306.592 254.391 306.59C252.165 306.589 249.94 306.584 247.714 306.569C226.637 306.244 226.637 306.244 208.046 315.054C196.286 326.859 198.068 346.806 198.043 362.036C198.038 363.623 198.033 365.21 198.028 366.797C198.017 370.25 198.008 373.704 198.001 377.157C197.99 382.334 197.976 387.51 197.961 392.686C197.936 401.487 197.914 410.288 197.893 419.088C197.872 427.87 197.85 436.651 197.826 445.432C197.825 445.981 197.823 446.53 197.822 447.096C197.816 449.329 197.81 451.563 197.804 453.797C197.731 481.23 197.664 508.663 197.598 536.096C197.575 545.726 197.551 555.355 197.528 564.984C197.403 616.507 197.28 668.029 197.162 719.551C197.161 720.175 197.16 720.8 197.158 721.443C197.1 747.054 197.042 772.665 196.984 798.277C132.565 798.277 68.145 798.277 1.77325 798.277C1.09925 709.999 1.09925 709.999 1.02212 684.562C1.01077 680.936 0.997768 677.31 0.984882 673.684C0.958835 666.34 0.934192 658.996 0.91054 651.652C0.887297 644.436 0.863248 637.22 0.83848 630.004C0.8369 629.544 0.8354 629.083 0.833771 628.609C0.827346 626.737 0.820945 624.865 0.814508 622.993C0.756769 606.2 0.700481 589.408 0.645276 572.616C0.593544 556.881 0.54089 541.145 0.487174 525.41C0.485504 524.921 0.483757 524.431 0.482037 523.928C0.468595 519.989 0.455247 516.051 0.441798 512.113C0.388258 496.435 0.335275 480.756 0.282554 465.078C0.267263 460.531 0.25197 455.983 0.236607 451.436C0.20451 441.932 0.172605 432.428 0.141432 422.925C0.128588 419.01 0.115754 415.095 0.102477 411.181C0.0115607 384.317 0.011471 384.317 0.0033068 372.249C0.00263203 371.339 0.00174026 370.428 0.000452973 369.517C-0.0671551 317.349 7.38399 266.235 55.544 197.56C55.9282 197.117 56.3125 196.674 56.7084 196.217C57.3687 195.46 58.0313 194.705 58.6969 193.953C59.3486 193.211 59.9918 192.462 60.6284 191.707C63.0204 188.891 65.577 186.494 68.4022 184.119C68.9356 183.652 69.469 183.184 70.0186 182.702C82.9441 171.422 97.6693 162.821 112.822 154.902C113.731 154.422 113.731 154.422 114.66 153.933C142.938 139.107 173.088 132.045 204.765 129.373C205.183 129.337 205.602 129.301 206.033 129.265C221.086 128.005 236.125 127.926 251.22 127.924C252.968 127.923 254.715 127.922 256.463 127.92C262.586 127.915 268.709 127.913 274.832 127.913C280.5 127.913 286.167 127.907 291.835 127.898C296.739 127.89 301.643 127.887 306.547 127.888C309.459 127.888 312.371 127.886 315.284 127.88C330.482 127.849 345.184 128.023 360.05 131.527C360.431 131.617 360.811 131.707 361.203 131.799C386.587 137.805 415.266 144.952 436.542 160.672C438.701 162.176 440.066 162.798 442.715 162.681C449.175 161.355 454.924 158.378 460.614 155.157C486.036 141.175 514.093 133.747 542.768 130.249C543.493 130.159 544.218 130.068 544.965 129.975C561.255 128.105 577.582 127.828 593.96 127.869C596.662 127.876 599.365 127.872 602.067 127.865C614.376 127.839 626.574 128.055 638.84 129.19C639.312 129.233 639.785 129.276 640.272 129.32C642.833 129.558 645.384 129.848 647.935 130.176C648.695 130.273 649.455 130.371 650.238 130.471C690.308 135.782 729.567 149.312 762.162 173.601C762.476 173.834 762.79 174.067 763.114 174.307C770.225 179.604 776.871 185.416 783.376 191.433C785.137 193.052 786.93 194.63 788.741 196.192C789.451 196.817 790.131 197.475 790.8 198.144C792.811 197.934 794.192 196.955 795.841 195.843C800.011 193.133 804.344 190.748 808.712 188.374C809.595 187.894 810.476 187.411 811.356 186.925C853.287 163.78 901.592 150.993 1036.76 139.59C1039.82 139.597 1042.88 139.598 1045.95 139.599C1051.7 139.603 1057.46 139.612 1063.22 139.624C1069.79 139.637 1076.36 139.644 1082.93 139.65C1096.41 139.662 1109.88 139.682 1123.36 139.708C1123.36 138.885 1123.36 138.885 1123.35 138.045C1123.3 124.655 1123.26 111.266 1123.24 97.8768C1123.23 91.4017 1123.21 84.9267 1123.18 78.4516C1123.16 72.8049 1123.15 67.1582 1123.14 61.5114C1123.14 58.5242 1123.13 55.5372 1123.11 52.5501C1123.1 49.7323 1123.09 46.9146 1123.1 44.0967C1123.1 43.0685 1123.09 42.0404 1123.08 41.0122C1122.99 29.5697 1125.54 19.0321 1133.17 10.0865C1142.63 0.79361 1154.95 0.45744 1167.33 0.389855C1168.62 0.37888 1169.9 0.36744 1171.19 0.355562C1174.58 0.325628 1177.97 0.302501 1181.36 0.280681C1184.72 0.257651 1188.08 0.227406 1191.45 0.198113C1202.95 0.100833 1214.46 0.0278185 1225.96 0.00898664ZM1085.98 286.998C1052.02 287.513 1017.89 290.548 984.843 298.653C983.929 298.875 983.929 298.875 982.997 299.102C967.378 302.953 952.06 308.157 937.501 315.015C936.967 315.265 936.433 315.515 935.882 315.772C924.118 321.322 913.223 327.989 903.017 336.052C902.458 336.487 901.898 336.923 901.321 337.371C867.561 364.235 851.05 403.718 846.114 445.842C845.764 448.979 845.437 452.116 845.155 455.26C845.1 455.873 845.044 456.485 844.986 457.116C844.486 463.227 844.429 469.33 844.425 475.457C844.425 476.009 844.424 476.561 844.424 477.13C844.466 514.842 854.636 553.088 879.639 582.065C880.074 582.577 880.51 583.088 880.959 583.615C887.457 591.038 894.475 597.855 902.433 603.686C902.766 603.935 903.098 604.183 903.441 604.439C936.088 628.769 976.55 638.706 1016.4 642.838C1017.05 642.908 1017.7 642.978 1018.37 643.051C1040.33 645.336 1063.41 645.062 1085.37 642.838C1085.76 642.799 1086.16 642.759 1086.56 642.718C1092.57 642.106 1098.56 641.406 1104.55 640.659C1105.84 640.499 1107.13 640.342 1108.42 640.185C1110.49 639.932 1112.56 639.672 1114.63 639.408C1115.78 639.262 1116.92 639.12 1118.06 638.979C1118.75 638.889 1119.43 638.799 1120.13 638.707C1120.73 638.63 1121.33 638.553 1121.94 638.474C1123.46 638.275 1123.46 638.275 1124.53 636.995C1124.71 635.891 1124.71 635.891 1124.67 634.609C1124.68 634.105 1124.68 633.602 1124.68 633.083C1124.68 632.247 1124.68 632.247 1124.67 631.393C1124.68 630.506 1124.68 630.506 1124.68 629.602C1124.68 627.597 1124.68 625.592 1124.67 623.588C1124.67 622.145 1124.67 620.703 1124.67 619.261C1124.68 616.113 1124.67 612.965 1124.67 609.817C1124.66 605.136 1124.66 600.455 1124.66 595.774C1124.66 587.901 1124.66 580.028 1124.65 572.155C1124.65 564.357 1124.64 556.559 1124.64 548.76C1124.64 548.276 1124.64 547.791 1124.64 547.292C1124.64 544.833 1124.64 542.373 1124.64 539.913C1124.64 522.478 1124.63 505.043 1124.62 487.608C1124.61 470.667 1124.6 453.726 1124.59 436.785C1124.59 436.002 1124.59 436.002 1124.59 435.203C1124.59 429.962 1124.59 424.72 1124.59 419.479C1124.59 408.801 1124.58 398.123 1124.58 387.446C1124.58 386.955 1124.58 386.464 1124.58 385.958C1124.57 353.155 1124.55 320.353 1124.53 287.55C1121.76 287.467 1118.99 287.385 1116.22 287.305C1115.28 287.277 1114.34 287.249 1113.41 287.221C1104.26 286.947 1095.13 286.872 1085.98 286.998Z" fill="white"/>
<path d="M1427.57 794L1460.55 636.52H1481.49L1448.62 794H1427.57ZM1483.54 794L1507.38 679.918H1525L1520.81 699.791C1528.47 691.985 1535.63 686.292 1542.29 682.711C1548.96 679.13 1555.76 677.34 1562.71 677.34C1571.94 677.34 1579.18 679.846 1584.4 684.859C1589.7 689.872 1592.35 696.568 1592.35 704.947C1592.35 709.173 1591.42 715.833 1589.56 724.928L1575.06 794H1555.62L1570.76 721.705C1572.27 714.687 1573.02 709.495 1573.02 706.129C1573.02 702.333 1571.69 699.254 1569.04 696.891C1566.46 694.527 1562.71 693.346 1557.76 693.346C1547.81 693.346 1538.93 696.926 1531.12 704.088C1523.39 711.249 1517.7 723.531 1514.04 740.934L1502.98 794H1483.54ZM1606 794L1629.84 679.918H1647.46L1643.27 699.791C1650.93 691.985 1658.1 686.292 1664.76 682.711C1671.42 679.13 1678.22 677.34 1685.17 677.34C1694.4 677.34 1701.64 679.846 1706.87 684.859C1712.16 689.872 1714.81 696.568 1714.81 704.947C1714.81 709.173 1713.88 715.833 1712.02 724.928L1697.52 794H1678.08L1693.22 721.705C1694.73 714.687 1695.48 709.495 1695.48 706.129C1695.48 702.333 1694.15 699.254 1691.5 696.891C1688.93 694.527 1685.17 693.346 1680.22 693.346C1670.27 693.346 1661.39 696.926 1653.58 704.088C1645.85 711.249 1640.16 723.531 1636.5 740.934L1625.44 794H1606ZM1731.89 750.709C1731.89 728.437 1738.45 709.996 1751.55 695.387C1762.37 683.355 1776.55 677.34 1794.09 677.34C1807.84 677.34 1818.91 681.637 1827.29 690.23C1835.74 698.824 1839.96 710.426 1839.96 725.035C1839.96 738.141 1837.31 750.351 1832.01 761.666C1826.71 772.91 1819.16 781.539 1809.35 787.555C1799.61 793.57 1789.33 796.578 1778.52 796.578C1769.64 796.578 1761.54 794.68 1754.24 790.885C1747.01 787.089 1741.46 781.718 1737.59 774.771C1733.79 767.825 1731.89 759.804 1731.89 750.709ZM1751.34 748.775C1751.34 759.518 1753.92 767.682 1759.07 773.268C1764.23 778.782 1770.78 781.539 1778.73 781.539C1782.88 781.539 1787 780.715 1791.08 779.068C1795.17 777.35 1798.96 774.771 1802.47 771.334C1805.98 767.896 1808.95 763.993 1811.39 759.625C1813.89 755.185 1815.9 750.423 1817.4 745.338C1819.62 738.248 1820.73 731.445 1820.73 724.928C1820.73 714.615 1818.12 706.63 1812.89 700.973C1807.73 695.243 1801.22 692.379 1793.34 692.379C1787.25 692.379 1781.7 693.847 1776.69 696.783C1771.68 699.648 1767.13 703.873 1763.05 709.459C1759.04 715.045 1756.06 721.562 1754.13 729.01C1752.27 736.386 1751.34 742.975 1751.34 748.775ZM1879.71 794L1861.02 679.918H1879.92L1889.7 742.76C1890.77 749.635 1892.1 760.842 1893.67 776.383C1897.4 768.29 1902.16 759.016 1907.96 748.561L1946.09 679.918H1966.61L1901.3 794H1879.71ZM2037.83 779.82C2031.1 785.621 2024.62 789.882 2018.39 792.604C2012.16 795.253 2005.5 796.578 1998.41 796.578C1987.88 796.578 1979.39 793.499 1972.95 787.34C1966.5 781.109 1963.28 773.16 1963.28 763.492C1963.28 757.118 1964.71 751.497 1967.58 746.627C1970.51 741.686 1974.38 737.747 1979.18 734.811C1983.98 731.803 1989.85 729.654 1996.8 728.365C2001.17 727.506 2009.44 726.826 2021.61 726.324C2033.86 725.823 2042.63 724.534 2047.93 722.457C2049.43 717.158 2050.19 712.753 2050.19 709.244C2050.19 704.732 2048.54 701.188 2045.24 698.609C2040.73 695.029 2034.14 693.238 2025.48 693.238C2017.31 693.238 2010.62 695.064 2005.39 698.717C2000.23 702.298 1996.47 707.418 1994.11 714.078L1974.45 712.359C1978.46 701.044 1984.8 692.379 1993.47 686.363C2002.2 680.348 2013.2 677.34 2026.45 677.34C2040.55 677.34 2051.73 680.706 2059.96 687.438C2066.26 692.451 2069.41 698.967 2069.41 706.988C2069.41 713.076 2068.52 720.13 2066.73 728.15L2060.39 756.51C2058.39 765.533 2057.38 772.874 2057.38 778.531C2057.38 782.112 2058.17 787.268 2059.75 794H2040.09C2039.01 790.276 2038.26 785.549 2037.83 779.82ZM2045.03 736.207C2042.31 737.281 2039.37 738.105 2036.22 738.678C2033.14 739.251 2027.95 739.859 2020.64 740.504C2009.33 741.507 2001.34 742.796 1996.69 744.371C1992.03 745.875 1988.53 748.31 1986.16 751.676C1983.8 755.042 1982.62 758.766 1982.62 762.848C1982.62 768.29 1984.48 772.766 1988.2 776.275C1992 779.785 1997.37 781.539 2004.32 781.539C2010.76 781.539 2016.96 779.856 2022.9 776.49C2028.84 773.053 2033.54 768.29 2036.97 762.203C2040.41 756.116 2043.1 747.451 2045.03 736.207ZM2128.82 778.209L2125.6 794.107C2120.94 795.325 2116.43 795.934 2112.06 795.934C2104.33 795.934 2098.17 794.036 2093.58 790.24C2090.15 787.376 2088.43 783.473 2088.43 778.531C2088.43 776.025 2089.36 770.26 2091.22 761.236L2105.08 694.957H2089.72L2092.83 679.918H2108.19L2114.1 651.881L2136.34 638.453L2127.64 679.918H2146.76L2143.54 694.957H2124.52L2111.31 758.014C2109.66 766.035 2108.84 770.833 2108.84 772.408C2108.84 774.7 2109.48 776.454 2110.77 777.672C2112.13 778.889 2114.32 779.498 2117.32 779.498C2121.62 779.498 2125.45 779.068 2128.82 778.209ZM2228.4 755.221L2247.3 757.154C2244.58 766.536 2238.32 775.452 2228.51 783.902C2218.77 792.353 2207.13 796.578 2193.59 796.578C2185.14 796.578 2177.37 794.645 2170.28 790.777C2163.26 786.839 2157.89 781.145 2154.17 773.697C2150.52 766.249 2148.69 757.763 2148.69 748.238C2148.69 735.777 2151.56 723.71 2157.29 712.037C2163.09 700.292 2170.57 691.591 2179.74 685.934C2188.9 680.204 2198.82 677.34 2209.49 677.34C2223.1 677.34 2233.95 681.565 2242.04 690.016C2250.21 698.466 2254.29 709.996 2254.29 724.605C2254.29 730.191 2253.79 735.921 2252.78 741.793H2168.78C2168.49 744.013 2168.35 746.018 2168.35 747.809C2168.35 758.479 2170.78 766.643 2175.65 772.301C2180.6 777.887 2186.61 780.68 2193.7 780.68C2200.36 780.68 2206.91 778.495 2213.36 774.127C2219.8 769.758 2224.82 763.456 2228.4 755.221ZM2171.89 726.969H2235.92C2235.99 724.964 2236.03 723.531 2236.03 722.672C2236.03 712.932 2233.59 705.484 2228.72 700.328C2223.85 695.1 2217.58 692.486 2209.92 692.486C2201.61 692.486 2194.02 695.351 2187.15 701.08C2180.35 706.809 2175.26 715.439 2171.89 726.969ZM2272.44 794L2277.06 771.979H2299.08L2294.36 794H2272.44ZM2514.89 738.57L2535.73 741.471C2529.14 759.661 2519.55 773.411 2506.94 782.721C2494.34 792.031 2480.2 796.686 2464.51 796.686C2445.39 796.686 2430.21 790.849 2418.96 779.176C2407.79 767.503 2402.21 750.781 2402.21 729.01C2402.21 700.65 2410.73 677.197 2427.77 658.648C2442.96 642.105 2461.83 633.834 2484.38 633.834C2501.07 633.834 2514.57 638.31 2524.88 647.262C2535.27 656.214 2541.28 668.245 2542.93 683.355L2523.27 685.182C2521.19 673.795 2516.9 665.309 2510.38 659.723C2503.94 654.065 2495.59 651.236 2485.35 651.236C2466.09 651.236 2450.51 659.794 2438.62 676.91C2428.31 691.663 2423.15 709.173 2423.15 729.439C2423.15 745.624 2427.13 757.978 2435.08 766.5C2443.03 775.022 2453.38 779.283 2466.12 779.283C2477.01 779.283 2486.86 775.738 2495.66 768.648C2504.47 761.559 2510.88 751.533 2514.89 738.57ZM2548.52 794L2572.36 679.918H2589.55L2584.72 703.229C2590.59 694.42 2596.32 687.903 2601.9 683.678C2607.56 679.452 2613.33 677.34 2619.2 677.34C2623.07 677.34 2627.83 678.736 2633.49 681.529L2625.54 699.576C2622.17 697.141 2618.48 695.924 2614.47 695.924C2607.67 695.924 2600.69 699.719 2593.53 707.311C2586.36 714.902 2580.74 728.544 2576.66 748.238L2566.99 794H2548.52ZM2705.57 755.221L2724.47 757.154C2721.75 766.536 2715.49 775.452 2705.67 783.902C2695.93 792.353 2684.3 796.578 2670.76 796.578C2662.31 796.578 2654.54 794.645 2647.45 790.777C2640.43 786.839 2635.06 781.145 2631.34 773.697C2627.69 766.249 2625.86 757.763 2625.86 748.238C2625.86 735.777 2628.72 723.71 2634.45 712.037C2640.25 700.292 2647.74 691.591 2656.9 685.934C2666.07 680.204 2675.99 677.34 2686.66 677.34C2700.27 677.34 2711.12 681.565 2719.21 690.016C2727.37 698.466 2731.46 709.996 2731.46 724.605C2731.46 730.191 2730.95 735.921 2729.95 741.793H2645.95C2645.66 744.013 2645.52 746.018 2645.52 747.809C2645.52 758.479 2647.95 766.643 2652.82 772.301C2657.76 777.887 2663.78 780.68 2670.87 780.68C2677.53 780.68 2684.08 778.495 2690.53 774.127C2696.97 769.758 2701.99 763.456 2705.57 755.221ZM2649.06 726.969H2713.09C2713.16 724.964 2713.19 723.531 2713.19 722.672C2713.19 712.932 2710.76 705.484 2705.89 700.328C2701.02 695.1 2694.75 692.486 2687.09 692.486C2678.78 692.486 2671.19 695.351 2664.32 701.08C2657.51 706.809 2652.43 715.439 2649.06 726.969ZM2821.15 779.82C2814.42 785.621 2807.94 789.882 2801.71 792.604C2795.48 795.253 2788.82 796.578 2781.73 796.578C2771.2 796.578 2762.71 793.499 2756.27 787.34C2749.82 781.109 2746.6 773.16 2746.6 763.492C2746.6 757.118 2748.03 751.497 2750.9 746.627C2753.83 741.686 2757.7 737.747 2762.5 734.811C2767.3 731.803 2773.17 729.654 2780.12 728.365C2784.49 727.506 2792.76 726.826 2804.93 726.324C2817.18 725.823 2825.95 724.534 2831.25 722.457C2832.75 717.158 2833.51 712.753 2833.51 709.244C2833.51 704.732 2831.86 701.188 2828.56 698.609C2824.05 695.029 2817.46 693.238 2808.8 693.238C2800.63 693.238 2793.94 695.064 2788.71 698.717C2783.55 702.298 2779.79 707.418 2777.43 714.078L2757.77 712.359C2761.78 701.044 2768.12 692.379 2776.79 686.363C2785.52 680.348 2796.52 677.34 2809.77 677.34C2823.87 677.34 2835.05 680.706 2843.28 687.438C2849.58 692.451 2852.73 698.967 2852.73 706.988C2852.73 713.076 2851.84 720.13 2850.05 728.15L2843.71 756.51C2841.71 765.533 2840.7 772.874 2840.7 778.531C2840.7 782.112 2841.49 787.268 2843.07 794H2823.41C2822.33 790.276 2821.58 785.549 2821.15 779.82ZM2828.35 736.207C2825.63 737.281 2822.69 738.105 2819.54 738.678C2816.46 739.251 2811.27 739.859 2803.96 740.504C2792.65 741.507 2784.66 742.796 2780.01 744.371C2775.35 745.875 2771.85 748.31 2769.48 751.676C2767.12 755.042 2765.94 758.766 2765.94 762.848C2765.94 768.29 2767.8 772.766 2771.52 776.275C2775.32 779.785 2780.69 781.539 2787.64 781.539C2794.08 781.539 2800.28 779.856 2806.22 776.49C2812.16 773.053 2816.86 768.29 2820.29 762.203C2823.73 756.116 2826.42 747.451 2828.35 736.207ZM2912.14 778.209L2908.92 794.107C2904.26 795.325 2899.75 795.934 2895.38 795.934C2887.65 795.934 2881.49 794.036 2876.9 790.24C2873.47 787.376 2871.75 783.473 2871.75 778.531C2871.75 776.025 2872.68 770.26 2874.54 761.236L2888.4 694.957H2873.04L2876.15 679.918H2891.51L2897.42 651.881L2919.66 638.453L2910.96 679.918H2930.08L2926.86 694.957H2907.84L2894.63 758.014C2892.98 766.035 2892.16 770.833 2892.16 772.408C2892.16 774.7 2892.8 776.454 2894.09 777.672C2895.45 778.889 2897.64 779.498 2900.64 779.498C2904.94 779.498 2908.77 779.068 2912.14 778.209ZM3011.72 755.221L3030.62 757.154C3027.9 766.536 3021.64 775.452 3011.83 783.902C3002.09 792.353 2990.45 796.578 2976.91 796.578C2968.46 796.578 2960.69 794.645 2953.6 790.777C2946.59 786.839 2941.21 781.145 2937.49 773.697C2933.84 766.249 2932.01 757.763 2932.01 748.238C2932.01 735.777 2934.88 723.71 2940.61 712.037C2946.41 700.292 2953.89 691.591 2963.06 685.934C2972.22 680.204 2982.14 677.34 2992.81 677.34C3006.42 677.34 3017.27 681.565 3025.36 690.016C3033.53 698.466 3037.61 709.996 3037.61 724.605C3037.61 730.191 3037.11 735.921 3036.1 741.793H2952.1C2951.81 744.013 2951.67 746.018 2951.67 747.809C2951.67 758.479 2954.1 766.643 2958.97 772.301C2963.92 777.887 2969.93 780.68 2977.02 780.68C2983.68 780.68 2990.23 778.495 2996.68 774.127C3003.12 769.758 3008.14 763.456 3011.72 755.221ZM2955.21 726.969H3019.24C3019.31 724.964 3019.35 723.531 3019.35 722.672C3019.35 712.932 3016.91 705.484 3012.04 700.328C3007.17 695.1 3000.9 692.486 2993.24 692.486C2984.93 692.486 2977.34 695.351 2970.47 701.08C2963.67 706.809 2958.58 715.439 2955.21 726.969ZM3055.76 794L3060.38 771.979H3082.4L3077.68 794H3055.76ZM3175.43 794L3208.41 636.52H3322.06L3318.3 654.459H3225.7L3215.39 703.443H3305.62L3301.87 721.383H3211.63L3200.24 776.168H3299.39L3295.63 794H3175.43ZM3318.09 794L3350.96 636.52H3370.4L3337.53 794H3318.09ZM3452.36 755.221L3471.27 757.154C3468.55 766.536 3462.28 775.452 3452.47 783.902C3442.73 792.353 3431.09 796.578 3417.56 796.578C3409.11 796.578 3401.34 794.645 3394.25 790.777C3387.23 786.839 3381.86 781.145 3378.13 773.697C3374.48 766.249 3372.66 757.763 3372.66 748.238C3372.66 735.777 3375.52 723.71 3381.25 712.037C3387.05 700.292 3394.53 691.591 3403.7 685.934C3412.87 680.204 3422.79 677.34 3433.46 677.34C3447.06 677.34 3457.91 681.565 3466.01 690.016C3474.17 698.466 3478.25 709.996 3478.25 724.605C3478.25 730.191 3477.75 735.921 3476.75 741.793H3392.74C3392.46 744.013 3392.31 746.018 3392.31 747.809C3392.31 758.479 3394.75 766.643 3399.62 772.301C3404.56 777.887 3410.58 780.68 3417.67 780.68C3424.33 780.68 3430.88 778.495 3437.32 774.127C3443.77 769.758 3448.78 763.456 3452.36 755.221ZM3395.86 726.969H3459.88C3459.95 724.964 3459.99 723.531 3459.99 722.672C3459.99 712.932 3457.56 705.484 3452.69 700.328C3447.82 695.1 3441.55 692.486 3433.89 692.486C3425.58 692.486 3417.99 695.351 3411.11 701.08C3404.31 706.809 3399.23 715.439 3395.86 726.969ZM3519.82 794L3501.13 679.918H3520.04L3529.81 742.76C3530.89 749.635 3532.21 760.842 3533.79 776.383C3537.51 768.29 3542.28 759.016 3548.08 748.561L3586.21 679.918H3606.73L3541.42 794H3519.82ZM3677.95 779.82C3671.22 785.621 3664.74 789.882 3658.51 792.604C3652.28 795.253 3645.62 796.578 3638.53 796.578C3628 796.578 3619.51 793.499 3613.07 787.34C3606.62 781.109 3603.4 773.16 3603.4 763.492C3603.4 757.118 3604.83 751.497 3607.7 746.627C3610.63 741.686 3614.5 737.747 3619.3 734.811C3624.1 731.803 3629.97 729.654 3636.91 728.365C3641.28 727.506 3649.55 726.826 3661.73 726.324C3673.97 725.823 3682.75 724.534 3688.05 722.457C3689.55 717.158 3690.3 712.753 3690.3 709.244C3690.3 704.732 3688.66 701.188 3685.36 698.609C3680.85 695.029 3674.26 693.238 3665.6 693.238C3657.43 693.238 3650.74 695.064 3645.51 698.717C3640.35 702.298 3636.59 707.418 3634.23 714.078L3614.57 712.359C3618.58 701.044 3624.92 692.379 3633.58 686.363C3642.32 680.348 3653.31 677.34 3666.56 677.34C3680.67 677.34 3691.84 680.706 3700.08 687.438C3706.38 692.451 3709.53 698.967 3709.53 706.988C3709.53 713.076 3708.64 720.13 3706.85 728.15L3700.51 756.51C3698.5 765.533 3697.5 772.874 3697.5 778.531C3697.5 782.112 3698.29 787.268 3699.86 794H3680.21C3679.13 790.276 3678.38 785.549 3677.95 779.82ZM3685.15 736.207C3682.43 737.281 3679.49 738.105 3676.34 738.678C3673.26 739.251 3668.07 739.859 3660.76 740.504C3649.45 741.507 3641.46 742.796 3636.81 744.371C3632.15 745.875 3628.64 748.31 3626.28 751.676C3623.92 755.042 3622.73 758.766 3622.73 762.848C3622.73 768.29 3624.6 772.766 3628.32 776.275C3632.12 779.785 3637.49 781.539 3644.43 781.539C3650.88 781.539 3657.07 779.856 3663.02 776.49C3668.96 773.053 3673.65 768.29 3677.09 762.203C3680.53 756.116 3683.21 747.451 3685.15 736.207ZM3768.94 778.209L3765.71 794.107C3761.06 795.325 3756.55 795.934 3752.18 795.934C3744.44 795.934 3738.28 794.036 3733.7 790.24C3730.26 787.376 3728.54 783.473 3728.54 778.531C3728.54 776.025 3729.48 770.26 3731.34 761.236L3745.2 694.957H3729.83L3732.95 679.918H3748.31L3754.22 651.881L3776.46 638.453L3767.75 679.918H3786.88L3783.65 694.957H3764.64L3751.43 758.014C3749.78 766.035 3748.96 770.833 3748.96 772.408C3748.96 774.7 3749.6 776.454 3750.89 777.672C3752.25 778.889 3754.43 779.498 3757.44 779.498C3761.74 779.498 3765.57 779.068 3768.94 778.209ZM3868.52 755.221L3887.42 757.154C3884.7 766.536 3878.43 775.452 3868.62 783.902C3858.88 792.353 3847.25 796.578 3833.71 796.578C3825.26 796.578 3817.49 794.645 3810.4 790.777C3803.38 786.839 3798.01 781.145 3794.29 773.697C3790.63 766.249 3788.81 757.763 3788.81 748.238C3788.81 735.777 3791.67 723.71 3797.4 712.037C3803.2 700.292 3810.69 691.591 3819.85 685.934C3829.02 680.204 3838.94 677.34 3849.61 677.34C3863.22 677.34 3874.07 681.565 3882.16 690.016C3890.32 698.466 3894.4 709.996 3894.4 724.605C3894.4 730.191 3893.9 735.921 3892.9 741.793H3808.9C3808.61 744.013 3808.47 746.018 3808.47 747.809C3808.47 758.479 3810.9 766.643 3815.77 772.301C3820.71 777.887 3826.73 780.68 3833.82 780.68C3840.48 780.68 3847.03 778.495 3853.48 774.127C3859.92 769.758 3864.93 763.456 3868.52 755.221ZM3812.01 726.969H3876.04C3876.11 724.964 3876.14 723.531 3876.14 722.672C3876.14 712.932 3873.71 705.484 3868.84 700.328C3863.97 695.1 3857.7 692.486 3850.04 692.486C3841.73 692.486 3834.14 695.351 3827.27 701.08C3820.46 706.809 3815.38 715.439 3812.01 726.969Z" fill="white"/>
<path d="M1415 410.181V62.4993H1495.82L1608 228.782L1564.89 230.346L1680.98 62.4993H1759.84V410.181H1680.49V126.093L1696.17 153.199L1584.48 311.141L1473.78 150.593L1490.92 138.082V410.181H1415ZM1938.49 418C1896.69 418 1865.18 406.185 1843.95 382.554C1823.05 358.576 1812.6 323.477 1812.6 277.259C1812.6 227.565 1823.22 191.946 1844.44 170.401C1865.99 148.508 1897.34 137.561 1938.49 137.561C1966.25 137.561 1989.43 142.6 2008.05 152.678C2026.99 162.408 2041.19 177.524 2050.66 198.027C2060.46 218.531 2065.36 244.941 2065.36 277.259C2065.36 323.477 2054.42 358.576 2032.54 382.554C2010.66 406.185 1979.31 418 1938.49 418ZM1938.49 355.97C1950.57 355.97 1960.53 353.016 1968.37 347.108C1976.53 340.853 1982.58 331.992 1986.49 320.524C1990.74 308.709 1992.86 294.287 1992.86 277.259C1992.86 257.798 1990.74 242.509 1986.49 231.388C1982.58 219.92 1976.53 211.754 1968.37 206.889C1960.21 201.676 1950.25 199.07 1938.49 199.07C1926.08 199.07 1915.96 201.676 1908.12 206.889C1900.28 212.102 1894.41 220.442 1890.49 231.909C1886.89 243.03 1885.1 258.147 1885.1 277.259C1885.1 303.67 1889.34 323.477 1897.83 336.683C1906.65 349.541 1920.2 355.97 1938.49 355.97ZM2229.38 418C2215.66 418 2201.95 416.957 2188.23 414.872C2174.84 413.135 2162.6 409.834 2151.49 404.968C2140.72 399.756 2132.06 392.805 2125.53 384.118C2119 375.082 2115.73 363.442 2115.73 349.193V48.9465H2187.25V192.815L2173.53 168.316C2179.41 161.018 2186.92 155.284 2196.07 151.114C2205.21 146.597 2214.52 143.469 2223.99 141.731C2233.46 139.994 2241.3 139.125 2247.5 139.125C2284.07 139.125 2311.83 150.94 2330.77 174.571C2350.04 197.853 2359.67 232.084 2359.67 277.259C2359.67 303.67 2356.41 325.911 2349.88 343.981C2343.35 362.051 2334.2 376.473 2322.44 387.246C2310.69 398.018 2296.97 405.837 2281.3 410.702C2265.62 415.568 2248.32 418 2229.38 418ZM2228.4 353.363C2242.77 353.363 2254.19 350.41 2262.68 344.502C2271.18 338.247 2277.22 329.733 2280.81 318.96C2284.73 308.188 2286.69 295.851 2286.69 281.951C2286.69 262.143 2284.24 246.331 2279.34 234.516C2274.44 222.701 2267.75 214.187 2259.26 208.974C2250.77 203.761 2240.97 201.155 2229.87 201.155C2223.34 201.155 2216.15 202.023 2208.31 203.761C2200.48 205.499 2193.46 208.279 2187.25 212.102V328.864C2187.25 335.119 2189.05 339.985 2192.64 343.46C2196.23 346.934 2201.13 349.541 2207.33 351.278C2213.86 352.668 2220.89 353.363 2228.4 353.363ZM2411.4 410.181V150.071H2484.38L2484.87 410.181H2411.4ZM2409.93 110.455V50.5103H2485.36V110.455H2409.93ZM2668.62 418C2649.36 418 2631.56 415.741 2615.23 411.224C2599.23 406.706 2585.35 399.235 2573.59 388.809C2561.83 378.037 2552.53 363.442 2545.67 345.023C2539.15 326.605 2535.87 303.67 2535.87 276.217C2535.87 233.473 2545.67 199.765 2565.26 175.092C2585.19 150.419 2614.9 138.082 2654.41 138.082C2659.65 138.082 2666.5 138.604 2674.99 139.646C2683.48 140.341 2692.3 142.427 2701.44 145.901C2710.59 149.376 2718.75 155.284 2725.93 163.624L2711.24 187.602V38H2783.73V341.374C2783.73 354.232 2780.47 365.527 2773.93 375.257C2767.41 384.639 2758.59 392.458 2747.48 398.713C2736.71 404.968 2724.46 409.66 2710.75 412.787C2697.03 416.262 2682.99 418 2668.62 418ZM2671.56 352.842C2683.31 352.842 2692.79 351.278 2699.97 348.151C2707.48 344.676 2711.24 339.637 2711.24 333.034V211.58C2705.36 208.106 2698.99 205.499 2692.13 203.761C2685.61 201.676 2679.24 200.634 2673.03 200.634C2659.31 200.634 2647.72 203.066 2638.25 207.931C2628.79 212.797 2621.59 220.963 2616.7 232.431C2612.13 243.898 2609.84 259.362 2609.84 278.823C2609.84 294.114 2611.8 307.318 2615.72 318.439C2619.64 329.211 2626 337.726 2634.82 343.981C2643.97 349.889 2656.22 352.842 2671.56 352.842ZM2965.16 418C2942.3 418 2922.05 414.177 2904.42 406.532C2886.78 398.887 2873.07 387.246 2863.27 371.608C2853.47 355.623 2848.58 334.945 2848.58 309.577V146.423H2921.56V303.322C2921.56 320.003 2924.99 332.513 2931.85 340.853C2939.03 348.846 2950.29 352.842 2965.65 352.842C2981.32 352.842 2992.59 348.846 2999.45 340.853C3006.3 332.513 3009.73 320.003 3009.73 303.322V146.423H3078.31V309.577C3078.31 347.108 3068.19 374.561 3047.94 391.937C3027.69 409.313 3000.1 418 2965.16 418ZM3261.3 418C3242.04 418 3224.24 415.741 3207.91 411.224C3191.91 406.706 3178.03 399.235 3166.27 388.809C3154.52 378.037 3145.21 363.442 3138.35 345.023C3131.83 326.605 3128.56 303.67 3128.56 276.217C3128.56 233.473 3138.35 199.765 3157.95 175.092C3177.87 150.419 3207.59 138.082 3247.1 138.082C3252.33 138.082 3259.19 138.604 3267.67 139.646C3276.16 140.341 3284.98 142.427 3294.12 145.901C3303.27 149.376 3311.43 155.284 3318.61 163.624L3303.92 187.602V38H3376.41V341.374C3376.41 354.232 3373.15 365.527 3366.62 375.257C3360.09 384.639 3351.28 392.458 3340.17 398.713C3329.39 404.968 3317.14 409.66 3303.43 412.787C3289.71 416.262 3275.67 418 3261.3 418ZM3264.24 352.842C3276 352.842 3285.47 351.278 3292.65 348.151C3300.17 344.676 3303.92 339.637 3303.92 333.034V211.58C3298.04 208.106 3291.67 205.499 3284.81 203.761C3278.29 201.676 3271.92 200.634 3265.71 200.634C3252 200.634 3240.41 203.066 3230.93 207.931C3221.47 212.797 3214.28 220.963 3209.38 232.431C3204.81 243.898 3202.52 259.362 3202.52 278.823C3202.52 294.114 3204.48 307.318 3208.4 318.439C3212.32 329.211 3218.69 337.726 3227.5 343.981C3236.65 349.889 3248.9 352.842 3264.24 352.842ZM3553.43 418C3528.62 418 3506.57 412.613 3487.3 401.841C3468.37 390.72 3453.5 375.082 3442.73 354.927C3432.27 334.424 3427.05 310.099 3427.05 281.951C3427.05 236.08 3437.66 200.634 3458.89 175.613C3480.45 150.245 3511.14 137.561 3550.98 137.561C3578.41 137.561 3600.46 143.816 3617.11 156.326C3634.09 168.837 3646.5 187.081 3654.34 211.059C3662.17 235.037 3665.93 264.228 3665.6 298.631H3477.02L3469.18 249.111H3605.35L3594.58 273.61C3594.25 245.462 3590.49 225.654 3583.31 214.187C3576.13 202.719 3564.37 196.985 3548.04 196.985C3538.9 196.985 3530.57 199.417 3523.06 204.283C3515.88 209.148 3510.16 217.314 3505.92 228.782C3502 239.903 3500.04 255.366 3500.04 275.174C3500.04 300.195 3505.59 319.481 3516.69 333.034C3528.13 346.587 3546.25 353.363 3571.06 353.363C3580.21 353.363 3589.19 352.321 3598.01 350.236C3607.15 347.804 3615.64 345.023 3623.48 341.896C3631.31 338.768 3638.01 335.988 3643.56 333.556V400.277C3631.8 405.49 3618.58 409.66 3603.88 412.787C3589.51 416.262 3572.7 418 3553.43 418ZM3789.79 418C3772.15 418 3756.97 415.915 3744.23 411.745C3731.83 407.922 3720.07 403.579 3708.96 398.713V330.428C3715.82 335.293 3723.5 340.332 3731.99 345.545C3740.48 350.41 3749.79 354.406 3759.91 357.534C3770.36 360.661 3781.3 362.225 3792.73 362.225C3804.48 362.225 3812.65 360.14 3817.22 355.97C3822.12 351.453 3824.57 346.066 3824.57 339.811C3824.57 333.903 3822.12 329.211 3817.22 325.737C3812.32 321.914 3805.95 318.786 3798.11 316.354C3790.28 313.922 3781.95 311.663 3773.13 309.577C3765.29 307.84 3757.46 305.233 3749.62 301.759C3741.78 297.936 3734.77 292.897 3728.56 286.642C3722.36 280.387 3717.29 272.742 3713.37 263.706C3709.79 254.324 3707.98 243.03 3707.98 229.824C3707.98 212.797 3711.09 198.723 3717.29 187.602C3723.5 176.134 3731.66 166.926 3741.78 159.975C3751.91 153.025 3762.85 148.16 3774.6 145.38C3786.36 142.252 3797.79 140.862 3808.89 141.21C3829.14 141.905 3845.14 144.337 3856.89 148.508C3868.98 152.33 3879.92 157.369 3889.71 163.624V224.612C3878.61 218.009 3867.51 211.927 3856.4 206.368C3845.63 200.46 3833.23 197.506 3819.18 197.506C3806.44 197.506 3797.3 199.591 3791.75 203.761C3786.2 207.931 3783.42 213.491 3783.42 220.442C3783.42 227.044 3785.22 232.257 3788.81 236.08C3792.73 239.903 3797.79 243.03 3803.99 245.462C3810.2 247.547 3817.06 249.632 3824.57 251.717C3832.74 253.802 3841.06 256.409 3849.55 259.536C3858.36 262.317 3866.53 266.487 3874.04 272.047C3881.88 277.259 3888.09 284.731 3892.65 294.461C3897.55 303.844 3900 316.354 3900 331.992C3899.68 353.189 3894.29 370.218 3883.84 383.075C3873.39 395.586 3859.83 404.621 3843.18 410.181C3826.86 415.394 3809.06 418 3789.79 418Z" fill="white"/>
<line x1="1415" y1="534.5" x2="3900" y2="534.5" stroke="white" stroke-width="7"/>
</svg>
